<?xml version="1.0" ?><!DOCTYPE svg  PUBLIC '-//W3C//DTD SVG 1.1//EN'  'http://www.w3.org/Graphics/SVG/1.1/DTD/svg11.dtd'><svg style="enable-background:new 0 0 200 200;" version="1.1" viewBox="0 0 200 200" xml:space="preserve" xmlns="http://www.w3.org/2000/svg" xmlns:xlink="http://www.w3.org/1999/xlink"><style type="text/css">
	.st0{fill:#0087BC;}
	.st1{fill:#F2F2F2;}
	.st2{fill:#F2F2F2;stroke:#000000;stroke-width:3;stroke-linecap:round;stroke-linejoin:round;stroke-miterlimit:10;}
	.st3{opacity:0.3;fill:#F2F2F2;}
	.st4{fill:#E84236;}
	.st5{fill:#FFFFFF;stroke:#000000;stroke-width:3;stroke-linecap:round;stroke-linejoin:round;stroke-miterlimit:10;}
	.st6{fill:#5C337F;}
	.st7{fill:#6988B7;}
	.st8{fill:#0067E3;}
	.st9{fill:#FFF200;}
	.st10{fill:#FFFFFF;stroke:#000000;stroke-width:5;stroke-linecap:round;stroke-linejoin:round;stroke-miterlimit:10;}
	.st11{opacity:0.66;fill:#FFFFFF;}
	.st12{fill:#17CB2D;}
	.st13{fill:#FFFFFF;}
	.st14{opacity:0.4;fill:#F2F2F2;}
	.st15{fill:#9E0A03;}
	.st16{fill:#CCCCCC;stroke:#000000;stroke-width:3;stroke-linecap:round;stroke-linejoin:round;stroke-miterlimit:10;}
	.st17{fill:#E6E6E6;stroke:#000000;stroke-width:3;stroke-linecap:round;stroke-linejoin:round;stroke-miterlimit:10;}
	.st18{fill:#FF233D;}
	.st19{fill:#F73E26;}
	.st20{fill:#F2F2F2;stroke:#000000;stroke-width:4;stroke-linecap:round;stroke-linejoin:round;stroke-miterlimit:10;}
	.st21{stroke:#000000;stroke-width:4;stroke-linecap:round;stroke-linejoin:round;stroke-miterlimit:10;}
	.st22{fill:none;stroke:#000000;stroke-width:4;stroke-linecap:round;stroke-linejoin:round;stroke-miterlimit:10;}
	.st23{fill:url(#SVGID_1_);}
	.st24{fill:#B22483;}
	.st25{fill:#12A0CC;}
	.st26{fill:#FF1E13;}
	.st27{fill:#FF1E13;stroke:#000000;stroke-width:3;stroke-linecap:round;stroke-linejoin:round;stroke-miterlimit:10;}
	.st28{fill:#1F41CC;}
</style><g><g id="Artboard_16"/><g id="Linked_In"><g id="In"/><g id="Bubble_13_"/></g><g id="Google_Plus"><g id="Icon_3_"/><g id="Bubble_12_"/></g><g id="Twitch"><g id="Twitch_1_"/><g id="Bubble_11_"/></g><g id="Discord"><g id="Controller"/><g id="Bubble_10_"/></g><g id="Behance"><g id="BE"/><g id="Bubble_9_"/></g><g id="SnapChat"><g id="Snap_Icon"/><g id="Ghost"/><g id="Dots"/><g id="Bubble_8_"/></g><g id="WhatsApp"><g><path class="st12" d="M100,197.5c-53.8,0-97.5-43.7-97.5-97.5S46.2,2.5,100,2.5s97.5,43.7,97.5,97.5S153.8,197.5,100,197.5z"/><path d="M100,5c52.4,0,95,42.6,95,95s-42.6,95-95,95S5,152.4,5,100S47.6,5,100,5 M100,0C44.8,0,0,44.8,0,100s44.8,100,100,100      s100-44.8,100-100S155.2,0,100,0L100,0z"/></g><g id="Icon_2_"/><g><g><path class="st13" d="M125,136.4c-3.9,0-8.8-1.3-9-1.4c0,0-0.1,0-0.1,0c-0.7-0.3-17-6.4-29.4-18.5       c-14.2-13.7-17.6-23.8-19.7-29.7l-0.2-0.5c-0.3-0.8-2.9-8.3-1.9-12.1c1.5-5.5,5-11,8.2-13.1c1.7-1.1,6.8-2,7.9-2.2       c0.2,0,0.5-0.1,0.8-0.1c1.2,0,2.3,0.5,3,1.4c0.1,0.1,0.1,0.1,0.2,0.2l8.4,14.4c0.6,0.7,1.1,2.2,0.1,3.9c0,0,0,0.1-0.1,0.1       l-5.3,7.4c2.2,6.1,7.4,13.7,10.4,16.6c3,3,8.8,7.1,16.4,10.1l6.6-5.4c0,0,0.1-0.1,0.1-0.1c0.6-0.4,1.2-0.5,1.8-0.5       c0.6,0,1.1,0.2,1.3,0.3l16.3,7.6c0.7,0.4,1.4,1.2,1.4,2.6c0,0,0,0.1,0,0.1c-0.1,1.2-0.6,7-1.7,9.1c-2,3.9-7.8,7.6-12.4,9.3       C127.4,136.2,126.4,136.4,125,136.4C125,136.4,125,136.4,125,136.4z"/><path d="M81.7,60.3c0.5,0,1.3,0.1,1.9,0.9l8.5,14.5c0,0,0.9,0.9,0.1,2.3L86.4,86c2.2,6.5,7.8,14.7,11,17.9       c3.2,3.2,9.6,7.7,17.8,10.8l7.3-6c0.4-0.2,0.7-0.3,0.9-0.3c0.4,0,0.6,0.2,0.6,0.2l16.3,7.6c0,0,0.5,0.3,0.5,1.3       c0,0-0.6,6.6-1.6,8.5c-1.7,3.2-6.7,6.8-11.6,8.6c-0.7,0.3-1.7,0.4-2.7,0.4c-3.7,0-8.6-1.3-8.6-1.3s-16.6-6.2-28.9-18.1       c-14.4-13.9-17.5-23.9-19.5-29.7c0,0-2.8-7.8-1.9-11.2c1.4-5,4.6-10.3,7.6-12.2c1.6-1,7.4-2,7.4-2S81.4,60.3,81.7,60.3        M81.7,57.3c-0.5,0-0.9,0.1-1.1,0.1c-2,0.3-6.5,1.2-8.4,2.4c-4.2,2.7-7.6,9.1-8.9,14c-1.1,4.1,1.4,11.5,2,13l0.2,0.5       c2.1,6.1,5.6,16.3,20,30.3c12.7,12.2,29.3,18.5,30,18.8c0.1,0,0.2,0.1,0.3,0.1c0.2,0.1,5.3,1.4,9.4,1.4c1.5,0,2.7-0.2,3.8-0.6       c4.7-1.7,10.9-5.6,13.2-10c1.2-2.3,1.7-8,1.9-9.7c0-0.1,0-0.2,0-0.3c0-2.1-1.1-3.4-2.1-3.9c0,0-0.1,0-0.1-0.1l-16.2-7.5       c-0.4-0.2-1.1-0.5-2-0.5c-0.9,0-1.8,0.3-2.6,0.8c-0.1,0.1-0.2,0.1-0.3,0.2l-5.9,4.9c-7-2.9-12.4-6.7-15.1-9.5       c-2.7-2.7-7.4-9.5-9.7-15.3l4.8-6.8c0-0.1,0.1-0.1,0.1-0.2c1.2-2.1,0.8-4.2-0.2-5.5l-8.4-14.3c-0.1-0.2-0.2-0.3-0.3-0.5       C84.8,57.9,83.3,57.3,81.7,57.3L81.7,57.3z"/></g><g><path class="st1" d="M104,166.3c-11.6,0-24.5-2.9-33.8-7.5l-30.2,7.4c-0.1,0-0.2,0-0.4,0c-0.4,0-0.7-0.1-1-0.4       c-0.4-0.3-0.6-0.8-0.5-1.3l4.4-34.5c-5.7-10.4-8.8-22.1-8.8-34c0-38.7,31.5-70.3,70.3-70.3s70.3,31.5,70.3,70.3       S142.7,166.3,104,166.3z M72.6,144.4c0.3,0,0.6,0.1,0.8,0.3c8.7,6,17.9,8.5,30.6,8.5c31.5,0,57.1-25.6,57.1-57.1       S135.5,38.9,104,38.9S46.9,64.5,46.9,96c0,11.2,3.2,22,9.4,31.4c0.2,0.3,0.3,0.7,0.2,1.1l-3.7,21.4l19.4-5.4       C72.3,144.4,72.4,144.4,72.6,144.4z"/><path d="M104,27.2c38,0,68.8,30.8,68.8,68.8S142,164.8,104,164.8c-11.3,0-24.2-2.8-33.6-7.6l-30.8,7.5l4.5-35       c-5.6-9.9-8.8-21.4-8.8-33.7C35.2,58,66,27.2,104,27.2 M50.9,151.9l21.7-6.1c9.4,6.5,19.1,8.8,31.4,8.8       c32.4,0,58.6-26.3,58.6-58.6c0-32.4-26.3-58.6-58.6-58.6S45.4,63.6,45.4,96c0,11.9,3.5,22.9,9.6,32.2L50.9,151.9 M104,24.2       c-39.6,0-71.8,32.2-71.8,71.8c0,12,3,23.8,8.7,34.2l-4.3,34c-0.1,1,0.2,2,1,2.6c0.6,0.5,1.3,0.8,2,0.8c0.2,0,0.5,0,0.7-0.1       l29.7-7.3c9.6,4.7,22.2,7.5,34,7.5c39.6,0,71.8-32.2,71.8-71.8S143.6,24.2,104,24.2L104,24.2z M54.6,147.8l3.3-19.1       c0.1-0.7,0-1.5-0.5-2.2c-6-9.1-9.1-19.6-9.1-30.5c0-30.7,25-55.6,55.6-55.6s55.6,25,55.6,55.6s-25,55.6-55.6,55.6       c-12.4,0-21.3-2.5-29.7-8.3c-0.5-0.3-1.1-0.5-1.7-0.5c-0.3,0-0.5,0-0.8,0.1L54.6,147.8L54.6,147.8z"/></g></g><g id="Bubble_7_"><path class="st14" d="M100,5C47.5,5,5,47.5,5,100s42.5,95,95,95s95-42.5,95-95S152.5,5,100,5z M100,190c-49.7,0-90-40.3-90-90      s40.3-90,90-90s90,40.3,90,90S149.7,190,100,190z"/></g></g><g id="Flipboard"><g id="Bubble_6_"/><g id="Icon_1_"/></g><g id="Pinterest"><g id="Bubble_5_"/><g id="Icon"/></g><g id="Reddit"><g id="Reddit_Icon"/><g id="Bubble_1_"/></g><g id="Tumblr"><g id="Layer_21"/><g id="Bubble"/></g><g id="Instagram"><g id="Layer_20"/><g id="Bubble_4_"/></g><g id="Twitter"><g id="Twitter_Bird"/><g id="Bubble_3_"/></g><g id="YouTube"><g id="YouTube_Button"/><g id="Bubble_2_"/></g><g id="Facebook_Icon"><g id="Facebook"/><g id="Bubble_14_"/></g></g></svg>